
<?xml version="1.0" standalone="no"?>
<!DOCTYPE svg PUBLIC "-//W3C//DTD SVG 20010904//EN"
 "http://www.w3.org/TR/2001/REC-SVG-20010904/DTD/svg10.dtd">
<svg version="1.0" xmlns="http://www.w3.org/2000/svg"
 width="162.000000pt" height="159.000000pt" viewBox="0 0 162.000000 159.000000"
 preserveAspectRatio="xMidYMid meet">

<g transform="translate(0.000000,159.000000) scale(0.100000,-0.100000)"
fill="#000000" stroke="none">
<path d="M853 1475 c-96 -21 -119 -39 -143 -110 -11 -33 -29 -103 -41 -155
-11 -52 -23 -97 -26 -100 -3 -3 -2 43 2 103 l7 107 -26 0 c-23 0 -25 4 -28 53
l-3 52 -61 3 c-74 4 -156 -24 -201 -68 -29 -28 -33 -43 -77 -268 -78 -404
-106 -593 -121 -843 -8 -125 -1 -139 71 -139 40 0 44 -2 44 -25 0 -22 4 -25
38 -25 21 0 58 12 87 28 l50 27 11 125 c6 79 13 116 17 100 6 -24 47 -211 47
-217 0 -2 22 -3 49 -3 46 0 50 -2 60 -31 10 -30 13 -31 48 -24 46 8 119 49
132 73 5 10 19 94 31 187 41 327 126 781 152 813 12 14 32 17 24 3 -18 -28
-136 -848 -136 -940 0 -52 3 -62 26 -80 15 -12 41 -21 60 -21 27 0 34 -4 34
-20 0 -45 87 -34 153 21 l37 30 0 98 c0 116 16 288 34 357 12 49 13 49 81 74
81 30 102 54 120 139 l13 61 -35 0 c-28 0 -33 3 -29 18 3 9 8 33 11 53 6 35 5
36 -25 43 -18 3 -43 6 -56 6 -29 0 -29 -2 -2 83 25 78 32 82 121 92 74 8 111
38 132 108 8 28 15 63 15 79 0 25 -4 28 -30 28 -30 0 -31 1 -24 35 3 19 3 47
0 61 l-7 27 -120 -6 c-191 -11 -305 -39 -369 -94 l-33 -27 8 25 c4 13 14 36
21 51 8 15 14 32 14 38 0 14 -81 11 -157 -5z m71 -91 c-66 -175 -149 -597
-199 -1009 -9 -71 -23 -140 -31 -152 -18 -29 -83 -62 -126 -65 l-33 -3 -21 97
c-12 53 -32 177 -43 275 -12 98 -24 197 -27 221 -5 43 -28 58 -38 25 -12 -42
-57 -367 -64 -463 l-7 -105 -42 -23 c-55 -30 -97 -42 -113 -32 -29 18 24 446
110 905 44 233 52 262 74 282 31 26 127 63 165 63 l28 0 0 -154 c1 -144 27
-411 44 -437 4 -7 14 -9 22 -6 10 4 22 44 37 129 38 210 69 361 85 416 14 46
21 56 53 69 46 20 89 31 124 32 l27 1 -25 -66z m536 43 c0 -13 -7 -46 -15 -74
-21 -70 -58 -100 -132 -108 -89 -10 -96 -14 -120 -91 -22 -70 -43 -171 -43
-209 0 -20 3 -20 80 -11 44 5 83 7 86 3 11 -11 -15 -114 -35 -138 -10 -13 -49
-34 -86 -48 -68 -26 -69 -27 -81 -75 -18 -71 -34 -233 -34 -351 l0 -104 -37
-31 c-49 -40 -106 -58 -128 -40 -23 19 -19 88 25 390 75 518 85 567 121 618
38 53 28 67 -36 47 l-43 -12 10 35 c6 20 21 60 34 89 13 29 23 57 23 61 -2 24
214 69 344 71 64 1 67 0 67 -22z"/>
</g>
</svg>